<svg xmlns:xlink="http://www.w3.org/1999/xlink" xmlns="http://www.w3.org/2000/svg" width="330.47805037353794" height="64.8" viewBox="0 0 330.47805037353794 64.8" class="css-1j8o68f"><defs id="SvgjsDefs4272"></defs><g id="SvgjsG4273" featurekey="nameLeftFeature-0" transform="matrix(2.3265304914964693,0,0,2.3265304914964693,0,3.2971456464315594)" fill="#111111"><path d="M2.96 20.16 l-0.44 0 c-1.4 0 -2.52 -1.12 -2.52 -2.52 l0 -9.64 c0 -1.4 1.12 -2.54 2.52 -2.54 l0.44 0 c1.4 0 2.52 1.14 2.52 2.54 l0 1.02 l-1.96 0 l0 -1.02 c0 -0.34 -0.24 -0.58 -0.56 -0.58 l-0.44 0 c-0.3 0 -0.58 0.24 -0.58 0.58 l0 9.64 c0 0.3 0.28 0.58 0.58 0.58 l0.44 0 c0.32 0 0.56 -0.28 0.56 -0.58 l0 -5.2 l-1.12 0 l0 -1.94 l3.08 0 l0 7.14 c0 1.4 -1.12 2.52 -2.52 2.52 z M8.36 18.12 l2.76 0 l0 1.88 l-4.64 0 l0 -14.36 l1.88 0 l0 12.48 z M16.78 11.52 c0.44 0.44 0.72 1.04 0.72 1.7 l0 4.38 c0 1.32 -1.08 2.4 -2.4 2.4 l-2.96 0 l-0.02 -14.24 l2.64 0 c1.46 0.06 2.32 1.46 2.3 2.78 l-0.02 1.98 c0 0.36 -0.1 0.7 -0.26 1 z M15.100000000000001 18.08 c0.28 0 0.5 -0.22 0.5 -0.48 l-0.02 -4.38 c0 -0.28 -0.22 -0.48 -0.48 -0.48 l-1.06 0 l0 5.34 l1.06 0 z M14.020000000000001 7.66 l0 3.16 l0.8 0 c0.16 0 0.32 -0.14 0.32 -0.32 l0.02 -1.98 c0 -0.4 -0.2 -0.84 -0.48 -0.86 l-0.66 0 z" fill="#111111"></path></g><g id="SvgjsG4274" featurekey="inlineSymbolFeature-0" transform="matrix(0.6896037760252696,0,0,0.6896037760252696,59.03256031388283,-2.1108772333862946)" fill="#6372FF"><path xmlns="http://www.w3.org/2000/svg" d="M49.835,97.028c-5.692,0-11.151-1.018-16.205-2.88c-0.187-0.062-0.3-0.103-0.332-0.114c-0.057-0.02-0.112-0.045-0.165-0.072  C15.448,87.213,2.853,70.072,2.853,50.045c0-17.438,9.578-33.352,24.994-41.531c4.372-2.42,9.026-4.016,13.834-4.746  c2.674-0.47,5.417-0.707,8.154-0.707c5.04,0,9.999,0.794,14.741,2.359c0.208,0.024,0.412,0.077,0.606,0.157  c0.257,0.106,0.51,0.211,0.762,0.32c5.327,1.943,10.216,4.814,14.533,8.531c12.932,10.43,15.979,23.561,16.256,32.749  c0.058,0.949,0.086,1.914,0.086,2.867c0,18.86-11.17,35.16-27.242,42.633c-0.074,0.044-0.153,0.086-0.235,0.121  c-0.197,0.086-0.394,0.171-0.592,0.253C62.96,95.608,56.561,97.028,49.835,97.028z M34.967,91.965  c2.089,0.631,7.917,2.165,15.214,2.167c0,0,0.001,0,0.002,0c6.293,0,12.177-1.118,17.501-3.324  c-0.358-0.524-1.002-1.246-1.326-1.607c-0.188-0.212-0.359-0.402-0.496-0.563c-0.417-0.493-0.904-0.659-1.936-0.659  c-0.239,0-0.484,0.007-0.73,0.016c-0.28,0.009-0.564,0.019-0.85,0.019c-1.974,0-3.435-0.14-5.09-0.854  c-1.332-0.574-2.142-0.763-3.329-0.096c-2.545,1.427-4.891,2.585-8.279,2.37c-0.92-0.058-1.788-0.165-2.302-0.841  c-0.498-0.656-0.346-1.385-0.211-2.025c0.044-0.208,0.095-0.45,0.138-0.733l0.016-0.103c0.241-1.598,0.093-1.647-0.175-1.738  c-0.656-0.222-1.519,0.177-2.13,0.915c-0.259,0.312-0.442,0.584-0.621,0.845c-0.522,0.764-1.015,1.488-2.597,2.062  C35.451,88.657,35.028,89.39,34.967,91.965z M9.795,30.591c-2.889,5.952-4.462,12.577-4.462,19.454  c0,18.402,11.229,34.231,27.193,40.998c0.184-2.568,0.998-4.327,4.392-5.561c0.83-0.303,0.961-0.495,1.395-1.13  c0.19-0.279,0.426-0.625,0.758-1.026c1.276-1.54,3.217-2.235,4.837-1.686c2.385,0.807,2.027,3.184,1.834,4.46l-0.016,0.103  c-0.042,0.277-0.089,0.521-0.135,0.737c0.064,0.006,0.134,0.011,0.212,0.015c2.72,0.168,4.545-0.732,6.909-2.058  c0.901-0.505,1.766-0.751,2.642-0.751c0.981,0,1.862,0.293,2.886,0.732c1.268,0.547,2.418,0.65,4.097,0.65  c0.269,0,0.525-0.009,0.779-0.017c0.274-0.009,0.545-0.018,0.811-0.018c1.252,0,2.686,0.184,3.831,1.539  c0.124,0.146,0.28,0.321,0.45,0.512c0.727,0.813,1.34,1.528,1.732,2.195c9.237-4.697,16.625-12.523,20.759-22.075  c-1.806,1.687-3.708,3.225-5.517,4.46c-1.009,0.688-2.13,1.067-3.155,1.067l0,0c-1.087,0-1.966-0.425-2.477-1.197  c-0.405-0.615-0.737-1.709-0.006-3.429c0.178-0.42,0.372-0.795,0.559-1.156c0.374-0.729,0.697-1.358,0.772-2.119  c0.082-0.816,0.054-1.678,0.025-2.59c-0.015-0.473-0.031-0.94-0.031-1.401c0-3.129,0.48-4.646,1.832-7.355  c1.285-2.573,0.917-5.663,0.527-7.763c-0.536-2.891-1.006-3.274-4.178-3.413c-2.931-0.127-5.944-0.542-7.804-4.015  c-0.806-1.505-1.105-1.882-2.287-2.886c-1.697-1.441-1.696-2.634-1.695-4.284v-0.181c0-1.553-0.001-2.845,0.811-4.369  c0.227-0.426,0.461-0.807,0.688-1.176c0.621-1.01,1.07-1.74,1.034-2.799c-0.035-1.019-0.567-1.891-1.183-2.899  c-0.555-0.908-1.184-1.937-1.479-3.194c-0.079-0.34-0.133-0.669-0.182-0.982c-0.17-1.081-0.227-1.133-0.689-1.266  c-0.292-0.084-0.793-0.053-1.334-0.001c-0.342,0.033-0.694,0.067-1.062,0.067c-0.581,0-1.081-0.089-1.525-0.272  c-1.702-0.704-2.465-2.402-2.04-4.546c0.197-0.997,0.648-2.03,1.263-2.861C56.3,5.669,50.733,5.216,45.252,5.777  c0.824,1.023,1.487,2.264,1.839,3.317c0.782,2.341,0.386,4.319-1.087,5.427c-0.91,0.684-2.182,0.771-3.188,0.771  c-0.514,0-1.049-0.027-1.566-0.053c-0.738-0.037-1.49-0.067-1.891-0.013c-1.148,0.155-1.84,0.764-2.799,1.608  c-0.26,0.228-0.527,0.462-0.812,0.696c-0.533,0.438-1.051,0.912-1.601,1.416c-0.865,0.791-1.759,1.608-2.729,2.282  c-0.448,0.312-0.86,0.526-1.191,0.698c-0.715,0.372-0.844,0.44-0.969,1.032c-0.074,0.346-0.106,0.686-0.138,1.014  c-0.097,1.004-0.276,2.875-2.739,2.875c-0.276,0-0.577-0.022-0.92-0.067c-0.975-0.13-1.707-0.539-2.294-0.868  c-0.623-0.349-1-0.546-1.517-0.546c-1.128,0-2.181,0.814-2.396,1.854c-0.087,0.417-0.029,0.563-0.028,0.564  c0.085,0.068,0.44,0.173,1.567,0.173l0.631-0.003c0.268,0,0.53,0.004,0.778,0.018c0.33,0.019,0.637,0.167,0.856,0.415  c0.219,0.246,0.332,0.569,0.312,0.899c-0.072,1.216,0.221,2.331,0.767,2.91c0.45,0.478,1.067,0.557,1.912,0.286  c0.46-0.146,0.807-0.308,1.174-0.48c0.77-0.361,1.566-0.733,2.974-0.733h0.001c0.839,0,1.253-0.194,1.878-0.489  c0.397-0.187,0.847-0.398,1.428-0.57c0.413-0.123,0.816-0.184,1.2-0.184c1.973,0,3.004,1.491,3.833,2.691  c0.525,0.76,1.021,1.477,1.564,1.579c0.302,0.056,0.717,0.003,1.158-0.063c0.367-0.055,0.747-0.113,1.159-0.113  c0.757,0,1.404,0.202,1.979,0.616c0.868,0.626,1.443,1.722,1.95,2.69c0.237,0.452,0.46,0.88,0.669,1.173  c0.158,0.224,0.321,0.467,0.488,0.717c0.457,0.686,0.975,1.462,1.49,1.875c0.535,0.428,1.038,0.469,1.953,0.512  c0.504,0.022,1.076,0.049,1.698,0.185c1.243,0.275,3.281,1.396,3.879,2.789c0.926,2.161-0.54,3.707-1.415,4.631  c-0.183,0.192-0.36,0.379-0.518,0.568c-0.658,0.795-0.654,2.325-0.651,3.803c0.005,1.785,0.01,3.63-1.206,4.745  c-0.66,0.604-1.619,0.904-2.546,1.195c-0.515,0.159-1.047,0.327-1.346,0.5c-0.744,0.433-1.715,1.169-2.121,2.219  c-0.159,0.411-0.265,0.789-0.368,1.154c-0.257,0.917-0.524,1.865-1.502,2.898c-0.305,0.321-0.629,0.473-0.824,0.562  c-0.018,0.008-0.036,0.017-0.055,0.024c-0.009,0.104-0.011,0.263-0.011,0.379c-0.004,0.503-0.009,1.195-0.433,1.77  c-0.484,0.657-1.136,1.004-1.66,1.282c-0.491,0.262-0.801,0.437-0.987,0.73c-0.551,0.866-0.797,2.034-0.598,2.84  c0.066,0.267,0.184,0.621,0.308,0.995c0.532,1.601,1.195,3.593,0.234,5.109c-0.511,0.809-1.367,1.29-2.542,1.434  c-0.227,0.026-0.442,0.04-0.648,0.04l0,0c-3.582,0-4.268-3.602-4.723-5.986c-0.147-0.775-0.286-1.507-0.478-1.977  c-0.309-0.759-0.769-1.42-1.257-2.121c-0.748-1.075-1.596-2.294-1.867-3.956c-0.246-1.508-0.248-3.167-0.005-4.673  c0.082-0.509,0.257-1.03,0.425-1.535c0.237-0.71,0.506-1.516,0.381-1.962c-0.21-0.754-1.154-1.433-2.152-2.15  c-1.139-0.82-2.432-1.751-3.094-3.151c-0.211-0.446-0.372-0.851-0.512-1.207c-0.271-0.686-0.485-1.227-0.962-1.841  c-0.242-0.311-0.522-0.625-0.818-0.957c-0.668-0.751-1.358-1.527-1.816-2.478c-0.525-1.09-1.04-3.345-0.541-4.946  c0.232-0.746,0.704-1.316,1.12-1.818c0.201-0.243,0.356-0.438,0.468-0.604c-1.327-0.449-2.136-0.948-3.345-2.443  c-0.762-0.942-1.119-0.963-2.301-1.034c-0.417-0.025-0.889-0.053-1.448-0.13c-2.294-0.317-2.766-1.78-3.147-2.956  c-0.109-0.34-0.223-0.691-0.382-1.042C10.846,31.857,10.337,31.183,9.795,30.591z M11.06,28.325  c0.873,0.866,1.791,1.946,2.378,3.235c0.219,0.48,0.361,0.92,0.486,1.308c0.331,1.025,0.374,1.157,1.125,1.26  c0.464,0.064,0.868,0.087,1.258,0.111c1.354,0.082,2.631,0.158,4.082,1.95c1.079,1.336,1.485,1.454,3.198,1.959  c0.451,0.133,0.789,0.51,0.871,0.973c0.262,1.478-0.588,2.506-1.208,3.256c-0.296,0.358-0.575,0.696-0.663,0.978  c-0.241,0.769,0.026,2.341,0.406,3.129c0.308,0.638,0.854,1.253,1.435,1.904c0.31,0.348,0.631,0.709,0.923,1.085  c0.696,0.895,1.009,1.686,1.312,2.449c0.13,0.33,0.267,0.677,0.448,1.061c0.389,0.82,1.318,1.49,2.301,2.197  c1.302,0.937,2.647,1.906,3.092,3.497c0.33,1.18-0.067,2.367-0.417,3.416c-0.143,0.43-0.278,0.835-0.329,1.145  c-0.202,1.249-0.2,2.626,0.004,3.877c0.181,1.109,0.771,1.956,1.454,2.939c0.543,0.78,1.105,1.588,1.519,2.604  c0.284,0.697,0.446,1.548,0.618,2.446c0.533,2.799,0.968,3.969,2.284,3.969h0.001c0.109,0,0.225-0.008,0.346-0.022  c0.227-0.026,0.624-0.102,0.747-0.296c0.331-0.522-0.205-2.134-0.493-2.999c-0.141-0.423-0.273-0.821-0.362-1.183  c-0.439-1.77,0.217-3.674,0.912-4.769c0.546-0.859,1.306-1.264,1.917-1.588c0.318-0.169,0.598-0.318,0.764-0.49  c0.01-0.102,0.012-0.271,0.012-0.392c0.004-0.478,0.008-1.072,0.331-1.611c0.393-0.661,0.901-0.896,1.173-1.023  c0.036-0.017,0.071-0.029,0.106-0.051c0.517-0.555,0.651-1.035,0.875-1.83c0.113-0.401,0.241-0.857,0.442-1.377  c0.526-1.362,1.629-2.562,3.188-3.469c0.541-0.313,1.208-0.523,1.853-0.726c0.573-0.179,1.356-0.423,1.609-0.654  c0.409-0.376,0.405-1.78,0.403-2.91c-0.006-1.83-0.01-3.905,1.221-5.392c0.19-0.229,0.406-0.459,0.626-0.691  c0.945-0.997,1.183-1.373,0.938-1.946c-0.164-0.381-1.336-1.167-2.134-1.343c-0.413-0.092-0.833-0.111-1.277-0.132  c-0.98-0.044-2.199-0.101-3.39-1.053c-0.815-0.653-1.447-1.6-2.003-2.435c-0.153-0.229-0.302-0.453-0.448-0.659  c-0.305-0.429-0.578-0.951-0.843-1.456c-0.361-0.688-0.811-1.547-1.204-1.832c-0.121-0.087-0.258-0.145-0.526-0.145  c-0.227,0-0.5,0.04-0.789,0.084c-0.586,0.087-1.336,0.17-1.985,0.049c-1.547-0.29-2.435-1.574-3.148-2.606  c-0.944-1.368-1.348-1.82-2.286-1.54c-0.4,0.119-0.729,0.274-1.077,0.437c-0.722,0.34-1.541,0.726-2.887,0.726h0  c-0.906,0-1.307,0.188-1.971,0.498c-0.403,0.189-0.859,0.403-1.47,0.597c-1.771,0.567-3.375,0.218-4.474-0.946  c-0.792-0.841-1.285-2.061-1.417-3.46l-0.122,0.001c-1.037,0-2.603,0-3.5-1.104c-0.535-0.656-0.692-1.537-0.469-2.618  c0.453-2.186,2.527-3.834,4.825-3.834c1.191,0.001,2.044,0.479,2.73,0.862c0.486,0.272,0.905,0.507,1.408,0.573  c0.347,0.046,0.647,0.052,0.788,0.037c0.032-0.16,0.057-0.419,0.076-0.622c0.035-0.358,0.078-0.806,0.18-1.29  c0.369-1.74,1.369-2.26,2.252-2.72c0.296-0.152,0.602-0.312,0.919-0.533c0.833-0.579,1.628-1.306,2.469-2.076  c0.549-0.502,1.118-1.021,1.702-1.501c0.263-0.216,0.509-0.433,0.748-0.643c1.089-0.958,2.215-1.947,4.107-2.202  c0.586-0.08,1.435-0.053,2.35-0.006c0.476,0.023,0.965,0.05,1.438,0.05c1.158,0,1.56-0.172,1.696-0.274  c0.628-0.474,0.544-1.451,0.362-2.188c-0.528-2.138-2.245-3.991-2.822-4.13c-4.554,0.803-8.935,2.309-13.024,4.475  C18.692,16.428,12.696,25.577,11.06,28.325z M65.761,12.181c0.444,0,0.833,0.05,1.191,0.154c2.032,0.586,2.275,2.134,2.453,3.264  c0.04,0.254,0.081,0.524,0.146,0.801c0.205,0.871,0.679,1.647,1.181,2.469c0.697,1.142,1.487,2.436,1.545,4.106  c0.062,1.808-0.681,3.017-1.399,4.185c-0.204,0.332-0.415,0.672-0.611,1.041c-0.521,0.978-0.52,1.793-0.519,3.144v0.241  c-0.002,1.468-0.002,1.694,0.819,2.392c1.413,1.201,1.924,1.841,2.867,3.606c1.14,2.128,2.823,2.581,5.726,2.707  c3.835,0.167,5.684,0.994,6.51,5.439c0.453,2.451,0.871,6.084-0.748,9.325c-1.198,2.397-1.569,3.572-1.569,6.246  c0,0.434,0.013,0.877,0.028,1.321c0.03,0.952,0.062,1.938-0.034,2.916c-0.123,1.231-0.608,2.175-1.037,3.007  c-0.173,0.338-0.337,0.656-0.481,0.994c-0.303,0.714-0.239,1.046-0.207,1.089c0.015,0.018,0.134,0.084,0.406,0.084l0,0  c0.517,0,1.173-0.237,1.756-0.636c1.775-1.211,3.652-2.739,5.429-4.417c1.061-1.003,2.018-2.105,3.172-3.668  c0.338-1.062,2.098-6.99,1.871-14.702c-0.736-12.048-6.192-23.041-15.366-30.955c-3.889-3.13-8.551-5.866-13.855-8.128  c-0.268-0.098-0.538-0.192-0.81-0.286c-0.432,0.219-1.375,1.438-1.534,2.824c-0.133,1.171,0.4,1.391,0.601,1.474  c0.277,0.114,0.812,0.086,1.404,0.029C65.036,12.215,65.391,12.181,65.761,12.181z" fill="#6372FF"></path></g><g id="SvgjsG4275" featurekey="nameRightFeature-0" transform="matrix(2.195121746982319,0,0,2.195121746982319,134.5853673343782,6.658536942780941)" fill="#111111"><path d="M5.2 11.58 c0 -5.58 0 -7.78 2.8 -7.78 c2.06 0 2.62 1.26 2.76 4.28 l-1.86 0 c-0.08 -2.18 -0.3 -2.68 -0.9 -2.68 c-0.92 0 -0.92 0.98 -0.92 6.18 c0 5.78 0 6.62 0.92 6.62 c0.66 0 0.86 -0.5 0.9 -3.08 l1.88 0 c-0.12 3.7 -0.62 5.08 -2.78 5.08 c-2.8 0 -2.8 -2.22 -2.8 -8.62 z M11.98 11.58 c0 -5.58 0.12 -7.78 3.12 -7.78 s3.12 2.2 3.12 7.78 c0 6.4 -0.12 8.62 -3.12 8.62 s-3.12 -2.22 -3.12 -8.62 z M13.98 11.58 c0 5.78 0 6.62 1.12 6.62 s1.12 -0.84 1.12 -6.62 c0 -5.2 0 -6.18 -1.12 -6.18 s-1.12 0.98 -1.12 6.18 z M20.02 20 l0 -16 l1.8 0 l2.62 9.8 l-0.02 -0.2 l0 -9.6 l2 0 l0 16 l-1.8 0 l-2.62 -8.8 l0.02 0.2 l0 8.6 l-2 0 z M28.020000000000003 15.120000000000001 l2.02 0 c0.04 2.58 0.24 3.08 0.96 3.08 c0.98 0 0.98 -0.82 0.98 -3 c0 -3.2 -3.96 -2.34 -3.96 -6.6 c0 -2.5 0 -4.8 3 -4.8 c2.22 0 2.82 1.26 2.96 4.28 l-2 0 c-0.08 -2.18 -0.32 -2.68 -0.96 -2.68 c-0.98 0 -0.98 1.08 -0.98 3.2 c0 3.1 3.98 2 3.98 6.6 c0 2.8 0 5 -3.02 5 c-2.32 0 -2.86 -1.38 -2.98 -5.08 z M34.82000000000001 5.800000000000001 l0 -1.8 l6 0 l0 1.8 l-2 0 l0 14.2 l-2 0 l0 -14.2 l-2 0 z M42.02 20 l0 -16 l3.24 0 c2.06 0 2.76 1.26 2.76 3.68 c0 2.18 -0.26 3.42 -0.88 4.02 l0 0.12 c0.52 0.18 0.68 1.12 0.88 3.46 l0.4 4.72 l-2 0 l-0.26 -4.72 c-0.14 -2.38 -0.5 -2.88 -1.1 -2.88 l-1.04 0 l0 7.6 l-2 0 z M44.02 10.8 l1.24 0 c0.7 0 0.9 -0.7 0.9 -3.12 c0 -1.58 -0.3 -2.08 -0.9 -2.08 l-1.24 0 l0 5.2 z M49.92 11.58 l0 -7.58 l2 0 l0 7.58 c0 5.78 0 6.62 1 6.62 s1 -0.84 1 -6.62 l0 -7.58 l2 0 l0 7.58 c0 6.4 0 8.62 -3 8.62 s-3 -2.22 -3 -8.62 z M57.62 11.58 c0 -5.58 0 -7.78 2.8 -7.78 c2.06 0 2.62 1.26 2.76 4.28 l-1.86 0 c-0.08 -2.18 -0.3 -2.68 -0.9 -2.68 c-0.92 0 -0.92 0.98 -0.92 6.18 c0 5.78 0 6.62 0.92 6.62 c0.66 0 0.86 -0.5 0.9 -3.08 l1.88 0 c-0.12 3.7 -0.62 5.08 -2.78 5.08 c-2.8 0 -2.8 -2.22 -2.8 -8.62 z M63.800000000000004 5.800000000000001 l0 -1.8 l6 0 l0 1.8 l-2 0 l0 14.2 l-2 0 l0 -14.2 l-2 0 z M71 20 l0 -16 l2 0 l0 16 l-2 0 z M74.8 11.58 c0 -5.58 0.12 -7.78 3.12 -7.78 s3.12 2.2 3.12 7.78 c0 6.4 -0.12 8.62 -3.12 8.62 s-3.12 -2.22 -3.12 -8.62 z M76.8 11.58 c0 5.78 0 6.62 1.12 6.62 s1.12 -0.84 1.12 -6.62 c0 -5.2 0 -6.18 -1.12 -6.18 s-1.12 0.98 -1.12 6.18 z M82.84 20 l0 -16 l1.8 0 l2.62 9.8 l-0.02 -0.2 l0 -9.6 l2 0 l0 16 l-1.8 0 l-2.62 -8.8 l0.02 0.2 l0 8.6 l-2 0 z" fill="#111111"></path></g></svg>