<svg width="474" height="59" viewBox="0 0 474 59" fill="none" xmlns="http://www.w3.org/2000/svg">
<path d="M26.0742 42.5811L25.293 43.5576C23.0469 46.1781 19.7591 47.4883 15.4297 47.4883C11.5885 47.4883 8.56934 46.2188 6.37207 43.6797C4.19108 41.1243 3.07617 37.5192 3.02734 32.8643V25.8818C3.02734 20.9014 4.02018 17.1742 6.00586 14.7002C8.00781 12.21 10.9945 10.9648 14.9658 10.9648C18.3512 10.9648 20.9961 11.9089 22.9004 13.7969C24.821 15.6849 25.8789 18.3786 26.0742 21.8779H21.6064C21.4274 19.6644 20.8089 17.9391 19.751 16.7021C18.7093 15.4489 17.1224 14.8223 14.9902 14.8223C12.4349 14.8223 10.5632 15.6605 9.375 17.3369C8.18685 18.9971 7.56836 21.6582 7.51953 25.3203V32.5713C7.51953 36.152 8.20312 38.9027 9.57031 40.8232C10.9375 42.7275 12.8988 43.6797 15.4541 43.6797C17.863 43.6797 19.694 43.0938 20.9473 41.9219L21.6064 41.3115V33.1084H15.1123V29.2998H26.0742V42.5811ZM34.3662 43.167H48.3066V47H29.874V11.4531H34.3662V43.167Z" fill="black"/>
<path d="M107.833 47V11.4531H117.965C121.204 11.4531 123.637 12.2425 125.265 13.8213C126.909 15.4001 127.73 17.7682 127.73 20.9258C127.73 22.5859 127.315 24.0508 126.485 25.3203C125.655 26.5898 124.532 27.5745 123.116 28.2744C124.744 28.7627 126.03 29.7637 126.974 31.2773C127.934 32.791 128.414 34.6139 128.414 36.7461C128.414 39.9362 127.535 42.4427 125.777 44.2656C124.036 46.0885 121.546 47 118.307 47H107.833ZM112.301 30.374V43.167H118.404C120.097 43.167 121.44 42.6136 122.433 41.5068C123.425 40.3838 123.922 38.8132 123.922 36.7949C123.922 32.5143 122.115 30.374 118.502 30.374H112.301ZM112.301 26.6143H118.038C119.584 26.6143 120.829 26.0934 121.773 25.0518C122.734 24.0101 123.214 22.6266 123.214 20.9014C123.214 18.9482 122.783 17.5322 121.92 16.6533C121.057 15.7581 119.739 15.3105 117.965 15.3105H112.301V26.6143ZM148.705 37.7227H136.693L133.935 47H129.345L140.795 11.4531H144.628L156.103 47H151.513L148.705 37.7227ZM137.865 33.8652H147.558L142.699 17.7031L137.865 33.8652ZM162.429 43.167H176.369V47H157.937V11.4531H162.429V43.167ZM209.48 35.7207C209.285 39.5293 208.211 42.4427 206.258 44.4609C204.321 46.4792 201.578 47.4883 198.03 47.4883C194.466 47.4883 191.634 46.1374 189.534 43.4355C187.435 40.7174 186.385 37.0391 186.385 32.4004V25.9551C186.385 21.3327 187.459 17.6787 189.607 14.9932C191.772 12.3076 194.718 10.9648 198.445 10.9648C201.88 10.9648 204.533 11.9984 206.404 14.0654C208.292 16.1162 209.318 19.054 209.48 22.8789H204.964C204.769 19.9818 204.158 17.9147 203.133 16.6777C202.107 15.4408 200.545 14.8223 198.445 14.8223C196.02 14.8223 194.157 15.7744 192.854 17.6787C191.552 19.5667 190.901 22.3418 190.901 26.0039V32.5225C190.901 36.1195 191.504 38.8783 192.708 40.7988C193.929 42.7194 195.703 43.6797 198.03 43.6797C200.358 43.6797 202.034 43.1019 203.06 41.9463C204.085 40.7907 204.72 38.7155 204.964 35.7207H209.48ZM235.68 32.3516C235.68 37.2018 234.646 40.9372 232.579 43.5576C230.512 46.1781 227.574 47.4883 223.766 47.4883C220.104 47.4883 217.206 46.2188 215.074 43.6797C212.958 41.1243 211.86 37.5192 211.778 32.8643V26.1748C211.778 21.4222 212.828 17.7031 214.928 15.0176C217.027 12.3158 219.957 10.9648 223.717 10.9648C227.46 10.9648 230.374 12.2588 232.457 14.8467C234.557 17.4183 235.631 21.0967 235.68 25.8818V32.3516ZM231.212 26.126C231.212 22.3662 230.593 19.5749 229.356 17.752C228.136 15.9128 226.256 14.9932 223.717 14.9932C221.259 14.9932 219.396 15.9209 218.126 17.7764C216.873 19.6318 216.238 22.3662 216.222 25.9795V32.3516C216.222 35.9811 216.848 38.748 218.102 40.6523C219.371 42.5566 221.259 43.5088 223.766 43.5088C226.272 43.5088 228.128 42.6299 229.332 40.8721C230.536 39.1143 231.163 36.4206 231.212 32.791V26.126ZM262.807 47H258.314L244.081 19.6074V47H239.589V11.4531H244.081L258.363 38.9678V11.4531H262.807V47ZM283.073 38.0156C283.073 36.2415 282.593 34.8825 281.633 33.9385C280.673 32.9945 278.939 32.0749 276.433 31.1797C273.926 30.2845 272.006 29.3486 270.671 28.3721C269.353 27.3792 268.36 26.2562 267.692 25.0029C267.041 23.7334 266.716 22.2848 266.716 20.6572C266.716 17.8415 267.652 15.5221 269.523 13.6992C271.411 11.8763 273.877 10.9648 276.921 10.9648C279.004 10.9648 280.86 11.4368 282.487 12.3809C284.115 13.3086 285.368 14.6025 286.247 16.2627C287.126 17.9229 287.565 19.7458 287.565 21.7314H283.073C283.073 19.5342 282.544 17.8333 281.486 16.6289C280.428 15.4245 278.907 14.8223 276.921 14.8223C275.114 14.8223 273.715 15.3268 272.722 16.3359C271.729 17.3451 271.232 18.7611 271.232 20.584C271.232 22.0814 271.77 23.3346 272.844 24.3438C273.918 25.3529 275.578 26.2562 277.824 27.0537C281.324 28.2093 283.822 29.6335 285.319 31.3262C286.833 33.0189 287.59 35.2324 287.59 37.9668C287.59 40.8477 286.654 43.1589 284.782 44.9004C282.91 46.6257 280.363 47.4883 277.141 47.4883C275.074 47.4883 273.161 47.0407 271.403 46.1455C269.662 45.234 268.286 43.9645 267.277 42.3369C266.285 40.693 265.788 38.8132 265.788 36.6973H270.28C270.28 38.8945 270.891 40.6035 272.111 41.8242C273.348 43.0449 275.025 43.6553 277.141 43.6553C279.11 43.6553 280.591 43.1507 281.584 42.1416C282.577 41.1325 283.073 39.7572 283.073 38.0156ZM311.25 15.3105H301.899V47H297.432V15.3105H288.105V11.4531H311.25V15.3105ZM324.241 32.6201H317.991V47H313.499V11.4531H323.46C326.943 11.4531 329.58 12.3646 331.37 14.1875C333.16 15.9941 334.056 18.6471 334.056 22.1465C334.056 24.3438 333.567 26.2643 332.591 27.9082C331.631 29.5358 330.263 30.7646 328.489 31.5947L335.374 46.707V47H330.564L324.241 32.6201ZM317.991 28.7871H323.411C325.283 28.7871 326.772 28.1849 327.879 26.9805C329.002 25.776 329.563 24.1647 329.563 22.1465C329.563 17.5892 327.496 15.3105 323.362 15.3105H317.991V28.7871ZM358.253 11.4531V36.7217C358.22 40.0908 357.244 42.7275 355.323 44.6318C353.403 46.5361 350.725 47.4883 347.291 47.4883C343.775 47.4883 341.09 46.5605 339.234 44.7051C337.379 42.8333 336.435 40.1722 336.402 36.7217V11.4531H340.846V36.5508C340.846 38.9434 341.35 40.7337 342.359 41.9219C343.385 43.0938 345.029 43.6797 347.291 43.6797C349.57 43.6797 351.214 43.0938 352.223 41.9219C353.248 40.7337 353.761 38.9434 353.761 36.5508V11.4531H358.253ZM384.428 35.7207C384.232 39.5293 383.158 42.4427 381.205 44.4609C379.268 46.4792 376.526 47.4883 372.978 47.4883C369.413 47.4883 366.581 46.1374 364.481 43.4355C362.382 40.7174 361.332 37.0391 361.332 32.4004V25.9551C361.332 21.3327 362.406 17.6787 364.555 14.9932C366.719 12.3076 369.665 10.9648 373.393 10.9648C376.827 10.9648 379.48 11.9984 381.352 14.0654C383.24 16.1162 384.265 19.054 384.428 22.8789H379.911C379.716 19.9818 379.105 17.9147 378.08 16.6777C377.055 15.4408 375.492 14.8223 373.393 14.8223C370.967 14.8223 369.104 15.7744 367.802 17.6787C366.5 19.5667 365.849 22.3418 365.849 26.0039V32.5225C365.849 36.1195 366.451 38.8783 367.655 40.7988C368.876 42.7194 370.65 43.6797 372.978 43.6797C375.305 43.6797 376.981 43.1019 378.007 41.9463C379.032 40.7907 379.667 38.7155 379.911 35.7207H384.428ZM407.551 15.3105H398.2V47H393.732V15.3105H384.406V11.4531H407.551V15.3105ZM414.463 47H409.995V11.4531H414.463V47ZM442.42 32.3516C442.42 37.2018 441.386 40.9372 439.319 43.5576C437.252 46.1781 434.314 47.4883 430.506 47.4883C426.844 47.4883 423.947 46.2188 421.814 43.6797C419.699 41.1243 418.6 37.5192 418.519 32.8643V26.1748C418.519 21.4222 419.568 17.7031 421.668 15.0176C423.768 12.3158 426.697 10.9648 430.457 10.9648C434.201 10.9648 437.114 12.2588 439.197 14.8467C441.297 17.4183 442.371 21.0967 442.42 25.8818V32.3516ZM437.952 26.126C437.952 22.3662 437.334 19.5749 436.097 17.752C434.876 15.9128 432.996 14.9932 430.457 14.9932C427.999 14.9932 426.136 15.9209 424.866 17.7764C423.613 19.6318 422.978 22.3662 422.962 25.9795V32.3516C422.962 35.9811 423.589 38.748 424.842 40.6523C426.111 42.5566 427.999 43.5088 430.506 43.5088C433.012 43.5088 434.868 42.6299 436.072 40.8721C437.277 39.1143 437.903 36.4206 437.952 32.791V26.126ZM469.547 47H465.055L450.821 19.6074V47H446.329V11.4531H450.821L465.104 38.9678V11.4531H469.547V47Z" fill="black"/>
<path id="earth" d="M75.9995 53C73.0919 53 70.3033 52.48 67.7216 51.5288C67.6261 51.4972 67.5684 51.4762 67.552 51.4706C67.5229 51.4604 67.4948 51.4476 67.4677 51.4338C58.4338 47.9863 52 39.2304 52 29.0003C52 20.0926 56.8927 11.9635 64.7675 7.78549C67.0008 6.54931 69.3782 5.73404 71.8342 5.36115C73.2002 5.12106 74.6014 5 75.9995 5C78.574 5 81.1072 5.40559 83.5295 6.20502C83.6358 6.21728 83.74 6.24435 83.8391 6.28522C83.9704 6.33936 84.0996 6.393 84.2283 6.44868C86.9495 7.4412 89.4469 8.90775 91.6521 10.8065C98.2581 16.1343 99.8146 22.8418 99.9561 27.5352C99.9857 28.02 100 28.5129 100 28.9997C100 38.6338 94.2941 46.9601 86.0842 50.7774C86.0464 50.7999 86.006 50.8214 85.9641 50.8392C85.8635 50.8832 85.7629 50.9266 85.6617 50.9685C82.704 52.2746 79.4353 53 75.9995 53ZM68.4046 50.4137C69.4717 50.7361 72.4488 51.5197 76.1762 51.5207C76.1762 51.5207 76.1767 51.5207 76.1773 51.5207C79.3919 51.5207 82.3975 50.9496 85.1172 49.8227C84.9343 49.555 84.6053 49.1862 84.4398 49.0018C84.3438 48.8935 84.2564 48.7965 84.1865 48.7142C83.9734 48.4624 83.7247 48.3776 83.1975 48.3776C83.0754 48.3776 82.9503 48.3812 82.8246 48.3858C82.6816 48.3904 82.5365 48.3955 82.3904 48.3955C81.382 48.3955 80.6357 48.324 79.7903 47.9593C79.1099 47.666 78.6961 47.5695 78.0898 47.9102C76.7897 48.6391 75.5913 49.2307 73.8607 49.1208C73.3907 49.0912 72.9473 49.0366 72.6848 48.6913C72.4304 48.3562 72.508 47.9838 72.577 47.6568C72.5994 47.5506 72.6255 47.427 72.6475 47.2824L72.6556 47.2298C72.7788 46.4135 72.7031 46.3885 72.5662 46.342C72.2311 46.2286 71.7903 46.4324 71.4782 46.8094C71.3459 46.9688 71.2524 47.1077 71.161 47.241C70.8943 47.6313 70.6425 48.0011 69.8344 48.2943C68.6518 48.7239 68.4357 49.0984 68.4046 50.4137ZM55.5461 19.0628C54.0704 22.1032 53.2668 25.4874 53.2668 29.0003C53.2668 38.4003 59.0029 46.4861 67.1577 49.9428C67.2516 48.631 67.6675 47.7324 69.4012 47.1021C69.8252 46.9473 69.8921 46.8492 70.1138 46.5249C70.2108 46.3824 70.3314 46.2056 70.501 46.0008C71.1528 45.2141 72.1443 44.8591 72.9718 45.1395C74.1902 45.5518 74.0073 46.766 73.9087 47.4178L73.9005 47.4704C73.8791 47.6119 73.8551 47.7365 73.8316 47.8469C73.8642 47.8499 73.9 47.8525 73.9399 47.8545C75.3293 47.9404 76.2615 47.4806 77.4691 46.8033C77.9294 46.5453 78.3712 46.4196 78.8187 46.4196C79.3198 46.4196 79.7699 46.5693 80.293 46.7936C80.9407 47.073 81.5281 47.1256 82.3858 47.1256C82.5232 47.1256 82.654 47.121 82.7837 47.1169C82.9237 47.1123 83.0621 47.1077 83.198 47.1077C83.8376 47.1077 84.5701 47.2017 85.155 47.8939C85.2183 47.9684 85.298 48.0578 85.3848 48.1554C85.7562 48.5707 86.0693 48.9359 86.2696 49.2766C90.9881 46.8773 94.762 42.8797 96.8738 38.0004C95.9512 38.8621 94.9796 39.6477 94.0556 40.2786C93.5401 40.63 92.9675 40.8236 92.4439 40.8236C91.8886 40.8236 91.4396 40.6065 91.1786 40.2122C90.9717 39.898 90.8021 39.3392 91.1755 38.4606C91.2665 38.2461 91.3656 38.0545 91.4611 37.8701C91.6521 37.4977 91.8171 37.1764 91.8554 36.7877C91.8973 36.3708 91.883 35.9305 91.8682 35.4647C91.8605 35.223 91.8524 34.9845 91.8524 34.749C91.8524 33.1506 92.0976 32.3757 92.7882 30.9919C93.4446 29.6776 93.2566 28.0992 93.0574 27.0265C92.7836 25.5497 92.5435 25.354 90.9232 25.283C89.426 25.2182 87.8869 25.0062 86.9367 23.2321C86.525 22.4633 86.3723 22.2707 85.7685 21.7579C84.9016 21.0218 84.9021 20.4124 84.9026 19.5695V19.4771C84.9026 18.6838 84.9021 18.0238 85.3169 17.2453C85.4329 17.0277 85.5524 16.8331 85.6684 16.6446C85.9856 16.1287 86.2149 15.7558 86.1965 15.2148C86.1787 14.6943 85.9069 14.2489 85.5922 13.734C85.3087 13.2701 84.9874 12.7445 84.8367 12.1024C84.7964 11.9287 84.7688 11.7607 84.7438 11.6008C84.6569 11.0486 84.6278 11.022 84.3918 10.9541C84.2426 10.9112 83.9867 10.927 83.7104 10.9536C83.5357 10.9704 83.3559 10.9878 83.1679 10.9878C82.8711 10.9878 82.6157 10.9423 82.3889 10.8489C81.5194 10.4892 81.1297 9.62188 81.3468 8.52668C81.4474 8.0174 81.6778 7.48973 81.992 7.06524C79.302 6.33221 76.4582 6.10081 73.6584 6.38738C74.0793 6.90995 74.418 7.54387 74.5978 8.08176C74.9973 9.27759 74.795 10.288 74.0425 10.854C73.5777 11.2034 72.9279 11.2478 72.414 11.2478C72.1515 11.2478 71.8782 11.234 71.6141 11.2207C71.2371 11.2018 70.8529 11.1865 70.6481 11.2141C70.0617 11.2933 69.7082 11.6044 69.2183 12.0355C69.0855 12.152 68.9491 12.2715 68.8035 12.391C68.5313 12.6148 68.2666 12.8569 67.9857 13.1143C67.5438 13.5184 67.0872 13.9357 66.5917 14.28C66.3628 14.4394 66.1524 14.5487 65.9833 14.6366C65.618 14.8266 65.5521 14.8613 65.4883 15.1637C65.4505 15.3405 65.4341 15.5142 65.4178 15.6817C65.3682 16.1946 65.2768 17.1503 64.0186 17.1503C63.8777 17.1503 63.7239 17.1391 63.5487 17.1161C63.0506 17.0497 62.6767 16.8408 62.3769 16.6727C62.0586 16.4944 61.866 16.3938 61.6019 16.3938C61.0257 16.3938 60.4878 16.8096 60.378 17.3408C60.3336 17.5539 60.3632 17.6284 60.3637 17.6289C60.4071 17.6637 60.5885 17.7173 61.1642 17.7173L61.4865 17.7158C61.6234 17.7158 61.7572 17.7178 61.8839 17.725C62.0525 17.7347 62.2093 17.8103 62.3212 17.937C62.4331 18.0626 62.4908 18.2276 62.4806 18.3962C62.4438 19.0173 62.5934 19.5869 62.8724 19.8827C63.1022 20.1268 63.4174 20.1672 63.8491 20.0288C64.084 19.9542 64.2613 19.8714 64.4488 19.7836C64.8421 19.5992 65.2487 19.4091 65.9679 19.4091H65.9685C66.397 19.4091 66.6085 19.31 66.9278 19.1594C67.1306 19.0638 67.3605 18.956 67.6572 18.8682C67.8682 18.8054 68.0741 18.7742 68.2702 18.7742C69.2781 18.7742 69.8047 19.5358 70.2282 20.1488C70.4964 20.537 70.7498 20.9033 71.0271 20.9554C71.1814 20.984 71.3934 20.9569 71.6187 20.9232C71.8061 20.8951 72.0003 20.8655 72.2107 20.8655C72.5974 20.8655 72.9279 20.9687 73.2216 21.1801C73.665 21.4999 73.9588 22.0598 74.2177 22.5542C74.3388 22.7851 74.4527 23.0038 74.5595 23.1534C74.6402 23.2679 74.7235 23.392 74.8088 23.5197C75.0422 23.8701 75.3068 24.2665 75.5699 24.4775C75.8432 24.6961 76.1001 24.717 76.5675 24.739C76.825 24.7503 77.1172 24.764 77.4349 24.8335C78.0699 24.974 79.1109 25.5466 79.4164 26.2582C79.8894 27.3621 79.1405 28.1518 78.6936 28.6238C78.6001 28.7219 78.5097 28.8174 78.429 28.9139C78.0928 29.32 78.0949 30.1016 78.0964 30.8566C78.099 31.7684 78.1015 32.7108 77.4804 33.2804C77.1432 33.5889 76.6533 33.7422 76.1798 33.8908C75.9167 33.972 75.645 34.0579 75.4922 34.1462C75.1122 34.3674 74.6162 34.7434 74.4088 35.2797C74.3276 35.4897 74.2734 35.6828 74.2208 35.8692C74.0895 36.3376 73.9531 36.8219 73.4535 37.3496C73.2977 37.5135 73.1322 37.5912 73.0326 37.6366C73.0234 37.6407 73.0142 37.6453 73.0045 37.6489C72.9999 37.702 72.9989 37.7833 72.9989 37.8425C72.9969 38.0995 72.9943 38.4529 72.7777 38.7467C72.5305 39.0823 72.1974 39.2595 71.9298 39.4015C71.6789 39.5354 71.5206 39.6248 71.4256 39.7744C71.1441 40.2168 71.0185 40.8134 71.1201 41.2251C71.1538 41.3615 71.2141 41.5424 71.2774 41.7334C71.5492 42.5512 71.8879 43.5688 71.397 44.3432C71.1359 44.7564 70.6987 45.0021 70.0985 45.0757C69.9825 45.089 69.8727 45.0961 69.7674 45.0961C67.9377 45.0961 67.5873 43.2562 67.3548 42.0384C67.2797 41.6425 67.2087 41.2686 67.1107 41.0285C66.9528 40.6408 66.7178 40.3031 66.4686 39.945C66.0865 39.3959 65.6533 38.7732 65.5148 37.9242C65.3892 37.1539 65.3882 36.3065 65.5123 35.5372C65.5542 35.2772 65.6436 35.011 65.7294 34.7531C65.8505 34.3904 65.9879 33.9787 65.924 33.7509C65.8167 33.3657 65.3345 33.0189 64.8247 32.6526C64.2429 32.2337 63.5824 31.7582 63.2442 31.043C63.1365 30.8152 63.0542 30.6083 62.9827 30.4265C62.8443 30.076 62.7349 29.7997 62.4913 29.486C62.3677 29.3272 62.2246 29.1668 62.0734 28.9972C61.7322 28.6136 61.3797 28.2172 61.1458 27.7314C60.8776 27.1746 60.6145 26.0227 60.8694 25.2049C60.9879 24.8238 61.229 24.5326 61.4415 24.2762C61.5442 24.1521 61.6234 24.0525 61.6806 23.9677C61.0027 23.7383 60.5895 23.4834 59.9719 22.7198C59.5827 22.2386 59.4003 22.2278 58.7965 22.1916C58.5835 22.1788 58.3424 22.1645 58.0568 22.1252C56.885 21.9632 56.6439 21.2159 56.4493 20.6152C56.3936 20.4415 56.3354 20.2622 56.2541 20.0829C56.083 19.7095 55.823 19.3652 55.5461 19.0628ZM56.1923 17.9053C56.6383 18.3477 57.1072 18.8993 57.4071 19.5578C57.5189 19.803 57.5915 20.0277 57.6553 20.2259C57.8244 20.7495 57.8464 20.817 58.23 20.8696C58.467 20.9023 58.6734 20.914 58.8726 20.9263C59.5643 20.9682 60.2166 21.007 60.9578 21.9224C61.509 22.6048 61.7164 22.6651 62.5914 22.9231C62.8218 22.991 62.9944 23.1836 63.0363 23.4201C63.1702 24.1751 62.736 24.7002 62.4193 25.0833C62.2681 25.2662 62.1255 25.4388 62.0806 25.5829C61.9575 25.9757 62.0939 26.7787 62.288 27.1812C62.4453 27.5071 62.7242 27.8213 63.021 28.1538C63.1794 28.3316 63.3433 28.516 63.4925 28.7081C63.848 29.1652 64.0079 29.5693 64.1627 29.9591C64.2291 30.1276 64.2991 30.3049 64.3915 30.501C64.5903 30.9199 65.0648 31.2622 65.5669 31.6233C66.232 32.1019 66.9191 32.5969 67.1464 33.4096C67.315 34.0124 67.1122 34.6187 66.9334 35.1546C66.8604 35.3742 66.7914 35.5811 66.7653 35.7395C66.6622 36.3775 66.6632 37.0809 66.7674 37.7199C66.8598 38.2864 67.1612 38.7191 67.5101 39.2212C67.7875 39.6196 68.0746 40.0324 68.2861 40.5514C68.4311 40.9074 68.5139 41.3421 68.6017 41.8008C68.874 43.2306 69.0962 43.8283 69.7685 43.8283H69.769C69.8247 43.8283 69.8839 43.8242 69.9457 43.817C70.0617 43.8038 70.2645 43.7649 70.3273 43.6658C70.4964 43.3992 70.2226 42.5757 70.0755 42.1339C70.0034 41.9178 69.936 41.7145 69.8906 41.5296C69.6663 40.6254 70.0014 39.6528 70.3564 39.0935C70.6353 38.6547 71.0236 38.4478 71.3357 38.2823C71.4981 38.196 71.6411 38.1199 71.7259 38.032C71.7311 37.9799 71.7321 37.8936 71.7321 37.8318C71.7341 37.5876 71.7362 37.2842 71.9012 37.0089C72.1019 36.6712 72.3614 36.5512 72.5004 36.4863C72.5187 36.4776 72.5366 36.4715 72.5545 36.4602C72.8186 36.1767 72.887 35.9315 73.0015 35.5254C73.0592 35.3206 73.1246 35.0877 73.2273 34.822C73.4959 34.1263 74.0594 33.5133 74.8558 33.05C75.1321 32.8901 75.4728 32.7829 75.8023 32.6792C76.095 32.5877 76.495 32.4631 76.6242 32.3451C76.8332 32.153 76.8311 31.4358 76.8301 30.8586C76.827 29.9238 76.825 28.8639 77.4538 28.1043C77.5509 27.9873 77.6612 27.8698 77.7736 27.7513C78.2563 27.242 78.3779 27.05 78.2527 26.7573C78.169 26.5626 77.5703 26.1611 77.1626 26.0712C76.9517 26.0242 76.7371 26.0145 76.5103 26.0038C76.0097 25.9813 75.387 25.9522 74.7786 25.4659C74.3623 25.1323 74.0395 24.6486 73.7554 24.2221C73.6773 24.1051 73.6012 23.9907 73.5266 23.8854C73.3708 23.6663 73.2313 23.3996 73.096 23.1417C72.9116 22.7902 72.6817 22.3515 72.4809 22.2059C72.4191 22.1614 72.3491 22.1318 72.2122 22.1318C72.0963 22.1318 71.9568 22.1522 71.8092 22.1747C71.5099 22.2191 71.1267 22.2615 70.7952 22.1997C70.005 22.0516 69.5514 21.3957 69.1872 20.8685C68.7049 20.1697 68.4986 19.9389 68.0194 20.0819C67.8151 20.1427 67.647 20.2219 67.4693 20.3051C67.1004 20.4788 66.6821 20.676 65.9945 20.676C65.5317 20.676 65.3269 20.772 64.9877 20.9304C64.7818 21.0269 64.5489 21.1362 64.2368 21.2353C63.3321 21.5249 62.5127 21.3467 61.9513 20.7521C61.5468 20.3225 61.2949 19.6993 61.2275 18.9847L61.1652 18.9852C60.6355 18.9852 59.8355 18.9852 59.3773 18.4212C59.104 18.0861 59.0238 17.6361 59.1377 17.0839C59.3691 15.9673 60.4286 15.1254 61.6025 15.1254C62.2108 15.1259 62.6466 15.3701 62.997 15.5658C63.2453 15.7047 63.4593 15.8247 63.7162 15.8584C63.8935 15.8819 64.0467 15.885 64.1188 15.8773C64.1351 15.7956 64.1479 15.6633 64.1576 15.5596C64.1755 15.3767 64.1974 15.1479 64.2495 14.9007C64.438 14.0118 64.9489 13.7462 65.3999 13.5112C65.5511 13.4336 65.7074 13.3519 65.8694 13.239C66.2949 12.9432 66.701 12.5718 67.1306 12.1785C67.411 11.9221 67.7017 11.657 68 11.4118C68.1343 11.3014 68.26 11.1906 68.3821 11.0833C68.9384 10.594 69.5136 10.0888 70.48 9.95851C70.7794 9.91764 71.2131 9.93143 71.6805 9.95544C71.9236 9.96719 72.1734 9.98098 72.415 9.98098C73.0066 9.98098 73.2119 9.89312 73.2814 9.84102C73.6022 9.59889 73.5593 9.09982 73.4663 8.72335C73.1966 7.63122 72.3195 6.68468 72.0248 6.61367C69.6985 7.02386 67.4606 7.79315 65.3718 8.89958C60.0909 11.8281 57.028 16.5016 56.1923 17.9053ZM84.1349 9.65866C84.3617 9.65866 84.5604 9.6842 84.7433 9.73732C85.7812 10.0367 85.9054 10.8274 85.9963 11.4046C86.0167 11.5344 86.0377 11.6723 86.0709 11.8138C86.1756 12.2587 86.4177 12.6551 86.6742 13.075C87.0302 13.6584 87.4338 14.3194 87.4634 15.1724C87.4951 16.096 87.1155 16.7136 86.7487 17.3102C86.6445 17.4798 86.5367 17.6535 86.4366 17.842C86.1705 18.3415 86.171 18.7578 86.1715 19.448V19.5711C86.1705 20.321 86.1705 20.4364 86.5899 20.7929C87.3117 21.4064 87.5727 21.7334 88.0544 22.635C88.6367 23.722 89.4965 23.9534 90.9794 24.0177C92.9384 24.103 93.8829 24.5255 94.3048 26.7961C94.5362 28.0481 94.7498 29.9039 93.9227 31.5594C93.3108 32.7839 93.1213 33.3841 93.1213 34.75C93.1213 34.9717 93.1279 35.198 93.1356 35.4248C93.1509 35.9111 93.1672 36.4148 93.1182 36.9144C93.0554 37.5432 92.8076 38.0254 92.5885 38.4504C92.5001 38.623 92.4163 38.7855 92.3428 38.9581C92.188 39.3229 92.2207 39.4924 92.237 39.5144C92.2447 39.5236 92.3055 39.5573 92.4444 39.5573C92.7085 39.5573 93.0436 39.4363 93.3414 39.2324C94.2481 38.6138 95.2069 37.8333 96.1147 36.9762C96.6567 36.4638 97.1455 35.9009 97.735 35.1025C97.9077 34.56 98.8067 31.5319 98.6908 27.5924C98.3148 21.4381 95.5277 15.8227 90.8415 11.7801C88.8549 10.1812 86.4734 8.78363 83.764 7.62816C83.6271 7.5781 83.4892 7.53008 83.3502 7.48206C83.1296 7.59393 82.6479 8.21662 82.5666 8.92461C82.4987 9.52278 82.771 9.63516 82.8736 9.67756C83.0151 9.73579 83.2884 9.72149 83.5908 9.69237C83.7645 9.67602 83.9459 9.65866 84.1349 9.65866Z" fill="#6372FF"/>
</svg>
