<?xml version="1.0"?>
<svg xmlns="http://www.w3.org/2000/svg" xmlns:xlink="http://www.w3.org/1999/xlink" xmlns:svgjs="http://svgjs.com/svgjs" version="1.1" width="512" height="512" x="0" y="0" viewBox="0 0 512 512" style="enable-background:new 0 0 512 512" xml:space="preserve"><g><g xmlns="http://www.w3.org/2000/svg"><path d="m452.605 30c8.284 0 15-6.716 15-15s-6.716-15-15-15h-105.376c-3.979 0-7.794 1.58-10.606 4.394l-287.834 287.833c-5.858 5.857-5.858 15.355 0 21.213 2.929 2.929 6.768 4.394 10.606 4.394s7.678-1.465 10.606-4.394l4.646-4.646v92.548h-15.251c-8.284 0-15 6.716-15 15v80.658c0 8.284 6.716 15 15 15h383.127c8.284 0 15-6.716 15-15v-323.642c0-8.284-6.716-15-15-15h-5.165v-128.358zm-211.728 210.025c-8.284 0-15 6.716-15 15v65.658h-32.021v-131.098l61.547-61.547v111.987zm-136.229 38.769 59.209-59.209v101.099h-13.721c-8.284 0-15 6.716-15 15v65.658h-30.488zm322.875 203.206h-353.127v-50.658h75.74c8.284 0 15-6.716 15-15v-65.658h75.741c8.284 0 15-6.716 15-15v-65.658h75.74c8.284 0 15-6.716 15-15v-66.667h80.905v293.641zm-20.165-323.642h-75.74c-8.284 0-15 6.716-15 15v66.667h-31.214v-141.987l68.038-68.038h53.916z" fill="#ffffff" data-original="#000000" style=""/></g></g></svg>
